<?xml version="1.0" standalone="no"?>
<!DOCTYPE svg PUBLIC "-//W3C//DTD SVG 1.1//EN" "http://www.w3.org/Graphics/SVG/1.1/DTD/svg11.dtd" >
<!--
2013-9-30: Created.
-->
<svg>
<metadata>
Created by iconfont
</metadata>
<defs>

<font id="iconfont" horiz-adv-x="1024" >
  <font-face
    font-family="iconfont"
    font-weight="500"
    font-stretch="normal"
    units-per-em="1024"
    ascent="896"
    descent="-128"
  />
    <missing-glyph />
    
    <glyph glyph-name="83" unicode="&#58991;" d="M170.833 403.833C113.484 403.833 67 357.349 67 300s46.484-103.833 103.833-103.833c57.349 0 103.833 46.484 103.833 103.833S228.182 403.833 170.833 403.833zM170.833 225.833c-40.893 0-74.167 33.274-74.167 74.167 0 40.894 33.274 74.167 74.167 74.167C211.727 374.167 245 340.894 245 300 245 259.107 211.727 225.833 170.833 225.833zM512 403.833c-57.349 0-103.833-46.484-103.833-103.833S454.651 196.167 512 196.167 615.833 242.651 615.833 300 569.349 403.833 512 403.833zM512 225.833c-40.893 0-74.167 33.274-74.167 74.167 0 40.894 33.274 74.167 74.167 74.167 40.893 0 74.166-33.273 74.166-74.167C586.166 259.107 552.893 225.833 512 225.833zM853.167 403.833c-57.35 0-103.834-46.484-103.834-103.833s46.484-103.833 103.834-103.833C910.516 196.167 957 242.651 957 300S910.516 403.833 853.167 403.833zM853.167 225.833C812.273 225.833 779 259.107 779 300c0 40.894 33.273 74.167 74.167 74.167 40.893 0 74.166-33.273 74.166-74.167C927.333 259.107 894.06 225.833 853.167 225.833z"  horiz-adv-x="1024" />

    
    <glyph glyph-name="rili" unicode="&#58904;" d="M919.898549 654.62574 696.553785 654.62574l0 69.421092c0 9.480932-7.688099 17.170055-17.09433 17.170055-9.479909 0-17.09433-7.762801-17.09433-17.170055l0-69.421092L366.164029 654.62574l0 69.421092c0 9.480932-7.614421 17.170055-17.09433 17.170055-9.480932 0-17.095353-7.762801-17.095353-17.170055l0-69.421092L99.895663 654.62574c-20.827351 0-37.845956-16.871249-37.845956-37.921681l0-712.660112c0-20.97573 17.019629-37.923728 37.845956-37.923728l819.931255 0c20.973684 0 37.919634 16.947997 37.919634 37.923728L957.746552 616.704059C957.822276 637.753467 940.800601 654.62574 919.898549 654.62574zM923.633616-95.957077c0-2.015913-1.642406-3.659343-3.734044-3.659343L99.895663-99.61642c-2.01489 0-3.657296 1.566682-3.657296 3.659343L96.238366 616.704059c0 2.015913 1.642406 3.657296 3.657296 3.657296l232.006028 0 0-60.613496c0-9.479909 7.612375-17.170055 17.092283-17.170055 9.480932 0 17.095353 7.762801 17.095353 17.170055l0 60.613496 296.203142 0 0-60.613496c0-9.479909 7.612375-17.170055 17.093307-17.170055s17.09433 7.762801 17.09433 17.170055l0 60.613496L919.751193 620.361355c2.092661 0 3.730974-1.567705 3.730974-3.657296l0-712.660112L923.633616-95.956054zM392.888693 442.625348 342.053911 442.625348c-11.422144 0-20.75265-9.331529-20.75265-20.826328l0-35.606962c0-11.495822 9.331529-20.827351 20.75265-20.827351l50.834782 0c11.42112 0 20.75265 9.331529 20.75265 20.827351L413.641343 421.800044C413.641343 433.294842 404.309814 442.625348 392.888693 442.625348zM543.974737 442.625348l-50.760081 0c-11.495822 0-20.827351-9.331529-20.827351-20.826328l0-35.606962c0-11.495822 9.331529-20.827351 20.827351-20.827351l50.760081 0c11.346419 0 20.751626 9.331529 20.751626 20.827351L564.726364 421.800044C564.726364 433.294842 555.321156 442.625348 543.974737 442.625348zM695.060781 442.625348l-50.760081 0c-11.493775 0-20.750603-9.331529-20.750603-20.826328l0-35.606962c0-11.495822 9.256828-20.827351 20.750603-20.827351l50.760081 0c11.420097 0 20.750603 9.331529 20.750603 20.827351L715.811384 421.800044C715.812407 433.294842 706.481901 442.625348 695.060781 442.625348zM392.888693 299.002276 342.053911 299.002276c-11.422144 0-20.75265-9.330506-20.75265-20.826328l0-35.682687c0-11.346419 9.331529-20.674878 20.75265-20.674878l50.834782 0c11.42112 0 20.75265 9.328459 20.75265 20.674878l0 35.682687C413.641343 289.671771 404.309814 299.002276 392.888693 299.002276zM543.974737 299.002276l-50.760081 0c-11.495822 0-20.827351-9.330506-20.827351-20.826328l0-35.682687c0-11.346419 9.331529-20.674878 20.827351-20.674878l50.760081 0c11.346419 0 20.751626 9.328459 20.751626 20.674878l0 35.682687C564.726364 289.671771 555.321156 299.002276 543.974737 299.002276zM695.060781 299.002276l-50.760081 0c-11.493775 0-20.750603-9.330506-20.750603-20.826328l0-35.682687c0-11.346419 9.256828-20.674878 20.750603-20.674878l50.760081 0c11.420097 0 20.750603 9.328459 20.750603 20.674878l0 35.682687C715.812407 289.671771 706.481901 299.002276 695.060781 299.002276zM392.888693 155.455953 342.053911 155.455953c-11.422144 0-20.75265-9.331529-20.75265-20.677948l0-35.83209c0-11.346419 9.331529-20.677948 20.75265-20.677948l50.834782 0c11.42112 0 20.75265 9.331529 20.75265 20.677948l0 35.83209C413.641343 146.124424 404.309814 155.455953 392.888693 155.455953zM543.974737 155.455953l-50.760081 0c-11.495822 0-20.827351-9.331529-20.827351-20.677948l0-35.83209c0-11.346419 9.331529-20.677948 20.827351-20.677948l50.760081 0c11.346419 0 20.751626 9.331529 20.751626 20.677948l0 35.83209C564.726364 146.124424 555.321156 155.455953 543.974737 155.455953zM695.060781 155.455953l-50.760081 0c-11.493775 0-20.750603-9.331529-20.750603-20.677948l0-35.83209c0-11.346419 9.256828-20.677948 20.750603-20.677948l50.760081 0c11.420097 0 20.750603 9.331529 20.750603 20.677948l0 35.83209C715.812407 146.124424 706.481901 155.455953 695.060781 155.455953z"  horiz-adv-x="1024" />

    
    <glyph glyph-name="fenxiang" unicode="&#58897;" d="M749.846548 179.640772c-38.662555 0-71.695902-18.626219-92.808756-47.298236L386.99752 255.237517c1.409093 6.844895 1.783623 13.745049 1.783623 20.923542 0 12.154831-1.783623 23.930015-5.630231 35.190477l277.075503 146.44842c21.067828-23.040762 50.957579-37.820374 84.742033-37.820374 63.250556 0 114.585735 51.332109 114.585735 114.631784 0 63.10627-51.335179 114.631784-114.585735 114.631784-63.296605 0-114.631784-51.525514-114.631784-114.631784 0-11.447726 1.735527-22.333658 4.928243-32.704866l-278.155091-146.775878c-20.74037 21.771863-50.253544 35.335786-82.630952 35.335786-63.296605 0-114.631784-51.190893-114.631784-114.304326 0-63.300698 51.335179-114.631784 114.631784-114.631784 37.96159 0 71.745021 18.485003 92.107791 46.969755l270.413779-122.746602c-1.034563-6.665817-1.735527-13.516852-1.735527-20.556175 0-63.294558 51.331086-114.438379 114.581642-114.438379 63.299675 0 114.304326 51.14382 114.304326 114.438379C864.150874 128.121398 813.146223 179.640772 749.846548 179.640772z"  horiz-adv-x="1024" />

    
    <glyph glyph-name="weixin" unicode="&#58909;" d="M691.009 461.730475c11.56029 0 22.930245-0.876973 34.364669-2.131547C694.590572 602.95287 541.371958 709.436066 366.413204 709.436066c-195.562001 0-355.754446-133.242653-355.754446-302.544571 0-97.688903 53.272297-177.910992 142.353149-240.22727l-35.557844-106.98564 124.384915 62.321394c44.478004-8.731872 80.160691-17.780969 124.57525-17.780969 11.181667 0 22.23849 0.502443 33.17047 1.319042-6.910387 23.810289-10.994402 48.690956-10.994402 74.633814C388.651694 335.588543 522.084683 461.730475 691.009 461.730475L691.009 461.730475zM499.783771 558.162758c26.888394 0 44.538379-17.652032 44.538379-44.414559 0-26.63359-17.651009-44.478004-44.538379-44.478004-26.578332 0-53.335742 17.844413-53.335742 44.478004C446.448028 540.572124 473.146087 558.162758 499.783771 558.162758L499.783771 558.162758zM250.822582 469.269172c-26.700105 0-53.588499 17.844413-53.588499 44.478004 0 26.762527 26.889417 44.414559 53.588499 44.414559 26.696012 0 44.416606-17.58961 44.416606-44.414559C295.239188 487.113585 277.518594 469.269172 250.822582 469.269172L250.822582 469.269172zM1015.792061 184.439054c0 142.228305-142.351102 258.134105-302.232462 258.134105-169.297824 0-302.544571-115.969245-302.544571-258.134105 0-142.602835 133.307122-258.130012 302.544571-258.130012 35.434024 0 71.179133 8.857738 106.736976 17.775852l97.55792-53.521984-26.764574 88.949868C962.519764 33.166769 1015.792061 104.216965 1015.792061 184.439054L1015.792061 184.439054zM615.434767 228.97948c-17.652032 0-35.557844 17.58961-35.557844 35.557844 0 17.715477 17.906835 35.553751 35.557844 35.553751 27.012214 0 44.540426-17.838274 44.540426-35.553751C659.975193 246.56909 642.448004 228.97948 615.434767 228.97948L615.434767 228.97948zM811.122635 228.97948c-17.528212 0-35.367509 17.58961-35.367509 35.557844 0 17.715477 17.777899 35.553751 35.367509 35.553751 26.762527 0 44.538379-17.838274 44.538379-35.553751C855.66306 246.56909 837.885162 228.97948 811.122635 228.97948L811.122635 228.97948z"  horiz-adv-x="1024" />

    
    <glyph glyph-name="k" unicode="&#58947;" d="M346.958 494.395 404.67 494.395 404.67 287.403 612.338 494.395 692.08 494.395 511.397 320.321 695.559 68.069 620.513 68.069 469.027 279.013 404.67 216.85 404.67 68.071 346.958 68.071 346.958 494.397ZM483.271 699.202c-229.504 0.03-417.452-187.786-417.981-417.681C64.76 52.21 253.534-136.706 483.243-136.735c229.501-0.029 417.452 187.784 417.983 417.682C901.756 510.257 712.977 699.172 483.271 699.202zM483.496-74.217c-194.608-0.658-355.028 159.547-355.689 355.209-0.658 194.609 159.551 355.032 355.211 355.69 194.61 0.654 355.031-159.551 355.688-355.21C839.361 86.86 679.159-73.558 483.496-74.217z"  horiz-adv-x="1024" />

    
    <glyph glyph-name="iconzhuanqu25" unicode="&#58955;" d="M682.682245 284.056622c0.083364 0.10231 0.151571 0.213463 0.233672 0.317036 4.139152 5.239305 5.921375 11.732861 5.316354 18.049584-0.001263 0.007579-0.002526 0.01642-0.003789 0.023999-0.310721 3.212043-1.234041 6.376088-2.771224 9.302672-0.059365 0.112415-0.133888 0.219778-0.195779 0.33093-0.335982 0.616389-0.684596 1.227725-1.076154 1.820115-0.203358 0.308194-0.443345 0.598706-0.66186 0.899321-0.27788 0.38398-0.53934 0.774275-0.842482 1.145624-0.079575 0.098521-0.17557 0.186938-0.257671 0.285459-0.468607 0.557024-0.951108 1.107732-1.475291 1.633178l-302.170747 302.183378c-9.866011 9.864748-25.860544 9.866011-35.726555 0-9.866011-9.866011-9.866011-25.860544 0-35.726555l284.308101-284.320732-284.308101-284.321995c-9.866011-9.866011-9.866011-25.860544 0-35.725292 4.932374-4.932374 11.396879-7.397929 17.862646-7.397929s12.930272 2.466819 17.863909 7.399193l302.170747 302.183378c0.248829 0.248829 0.463555 0.517868 0.699753 0.774275C681.997649 283.291188 682.360156 283.661274 682.682245 284.056622z"  horiz-adv-x="1024" />

    
    <glyph glyph-name="tixing" unicode="&#58965;" d="M512.180224 812c-282.770432 0-512-229.229568-512-512s229.229568-512 512-512c282.769408 0 512 229.229568 512 512S794.948608 812 512.180224 812zM512.048128 630.752c33.933312 0.072704 61.499392-27.375616 61.572096-61.308928 0.070656-33.931264-27.37664-61.498368-61.309952-61.570048s-61.498368 27.377664-61.570048 61.309952C450.666496 603.11424 478.114816 630.68032 512.048128 630.752zM512.669696-20.592896c-33.932288-0.07168-61.484032 20.501504-61.538304 45.949952l-0.784384 368.638976c-0.055296 25.449472 27.409408 46.138368 61.340672 46.211072 33.932288 0.07168 61.484032-20.50048 61.538304-45.949952l0.785408-368.64C574.066688 0.168704 546.601984-20.520192 512.669696-20.592896z"  horiz-adv-x="1025" />

    
    <glyph glyph-name="qun1" unicode="&#59010;" d="M473.177357 342.230026c49.776324 35.086417 82.382903 92.932309 82.382903 158.482274 0 107.105849-86.831525 193.937374-193.935249 193.937374s-193.935249-86.831525-193.935249-193.937374c0-69.533219 36.692893-130.32538 91.66689-164.559684C152.692798 293.434374 75.248321 193.390858 65.370405 74.054753l51.89598 0c12.982495 130.662187 123.188673 232.722298 257.289059 232.722298s244.305502-102.061174 257.289059-232.722298l51.948042 0C673.395075 199.52033 588.323024 303.597036 473.177357 342.230026zM361.625012 358.494535c-78.556897 0-142.218828 63.662993-142.218828 142.217766 0 78.55796 63.662993 142.219891 142.218828 142.219891 78.556897 0 142.218828-63.662993 142.218828-142.219891C503.844902 422.155403 440.182971 358.494535 361.625012 358.494535zM754.434998 342.230026c49.776324 35.086417 82.382903 92.932309 82.382903 158.482274 0 107.105849-86.831525 193.937374-193.935249 193.937374-32.271896 0-62.697195-7.894258-89.468611-21.840426 18.026108-9.391298 34.391552-21.529118 48.541718-35.863093 12.962308 3.88763 26.699167 5.986036 40.927955 5.986036 78.556897 0 142.218828-63.662993 142.218828-142.219891 0.001062-78.556897-63.661931-142.217766-142.218828-142.217766-14.276601 0-28.055959 2.112219-41.056516 6.023223-8.090818-8.176879-16.899874-15.641893-26.32836-22.287732 25.936303-8.700683 50.339441-20.735442 72.714297-35.573035 2.525525 0.072249 5.056363 0.120061 7.598887 0.120061 134.100386 0 244.305502-102.061174 257.289059-232.722298l51.94698 0C954.652716 199.52033 869.580665 303.597036 754.434998 342.230026z"  horiz-adv-x="1025" />

    
    <glyph glyph-name="biaoshileihuifang" unicode="&#59171;" d="M416 254.08c-5.184 0-10.368 1.28-15.104 3.776-10.368 5.568-16.896 16.448-16.896 28.224l0 256c0 11.84 6.528 22.656 16.896 28.224 10.432 5.504 22.976 4.992 32.896-1.6l192-128c8.832-5.952 14.208-15.936 14.208-26.624s-5.376-20.736-14.272-26.624l-192-128c-5.376-3.52-11.52-5.376-17.728-5.376zM448 482.304l0-136.384 102.336 68.16-102.336 68.224zM960 768l0-704-896 0 0 704 896 0zM1024 832l-1024 0 0-832 1024 0 0 832zM960.512 706.752l-896 0 0-64 896 0 0 64zM960.512 194.752l-896 0 0-64 896 0 0 64zM256 772.544l-64 0 0-128 64 0 0 128zM448 772.544l-64 0 0-128 64 0 0 128zM640 772.544l-64 0 0-128 64 0 0 128zM832 772.544l-64 0 0-128 64 0 0 128zM256 188.48l-64 0 0-183.936 64 0 0 183.936zM448 188.48l-64 0 0-183.936 64 0 0 183.936zM640 188.48l-64 0 0-183.936 64 0 0 183.936zM832 189.376l-64 0 0-184.896 64 0 0 184.896z"  horiz-adv-x="1024" />

    
    <glyph glyph-name="xiaoxi" unicode="&#58888;" d="M919.822222 846.236444H110.933333c-51.335111 0-93.333333-42.645333-93.333333-94.755555v-614.350222c0-52.110222 41.998222-78.990222 93.333333-78.990223h373.333334c51.335111 0 123.036444-38.791111 159.317333-75.640888l54.691556-59.064889c14.072889-14.314667 27.192889-22.990222 37.937777-22.990223 16.917333 0 28.046222 23.281778 28.046223 55.175112 0 52.110222 41.998222 102.520889 93.333333 102.520888h62.222222c51.335111 0 93.333333 26.88 93.333333 78.990223V751.480889c0.007111 52.110222-41.998222 94.755556-93.326222 94.755555z m31.111111-709.105777c0-17.109333-14.243556-17.351111-31.111111-17.351111h-62.222222c-68.664889 0-127.096889-52.522667-147.655111-115.306667l-22.364445 26.247111c-48.007111 48.753778-135.409778 89.052444-203.320888 89.052444H110.933333c-16.867556 0-31.111111 0.241778-31.111111 17.351112V751.480889c0 17.123556 14.243556 31.580444 31.111111 31.580444h808.888889c16.867556 0 31.111111-14.464 31.111111-31.580444v-614.350222zM235.377778 561.969778h311.111111c17.180444 0 31.111111 14.144 31.111111 31.573333 0 17.450667-13.930667 31.594667-31.111111 31.594667H235.377778c-17.180444 0-31.111111-14.144-31.111111-31.594667 0-17.422222 13.930667-31.573333 31.111111-31.573333zM764.266667 467.207111H235.377778c-17.180444 0-31.111111-14.151111-31.111111-31.573333 0-17.429333 13.930667-31.573333 31.111111-31.573334h528.888889c17.180444 0 31.111111 14.144 31.111111 31.573334 0 17.422222-13.930667 31.573333-31.111111 31.573333zM764.266667 340.864H235.377778c-17.180444 0-31.111111-14.144-31.111111-31.566222 0-17.429333 13.930667-31.573333 31.111111-31.573334h528.888889c17.180444 0 31.111111 14.144 31.111111 31.573334 0 17.415111-13.930667 31.566222-31.111111 31.566222z"  horiz-adv-x="1024" />

    
    <glyph glyph-name="daguimo" unicode="&#58891;" d="M650.178 797.424c16.976-3.691 30.999-12.736 42.067-27.124 11.069-14.387 17.34-32.283 18.813-53.686 0-6.642 0.372-16.969 1.106-30.991 0.742-14.020 1.109-28.781 1.109-44.276 0-15.495-0.551-29.521-1.66-42.067-1.106-12.544-3.135-20.288-6.092-23.238-4.426-5.168-8.667-7.568-12.73-7.202-4.060 0.374-6.086-1.659-6.086-6.086 0-2.219-0.556-9.961-1.66-23.246-1.106-13.278-4.24-31.73-9.409-55.344-2.95-12.544-7.194-23.797-12.73-33.756-5.534-9.96-11.251-19.004-17.161-27.124-7.377-8.852-14.755-16.968-22.14-24.346-0.734-9.595-1.106-18.821-1.106-27.673v-23.245c0-8.118 0.372-14.393 1.106-18.819 0.742-8.854 2.951-15.127 6.643-18.814 3.692-3.691 11.070-7.010 22.14-9.966 3.692-1.476 10.334-3.687 19.923-6.635 9.594-2.957 21.036-6.829 34.315-11.628 13.285-4.792 27.124-9.775 41.509-14.943 14.394-5.16 28.231-10.146 41.51-14.937 13.285-4.799 25.090-9.225 35.428-13.285 10.329-4.062 18.077-7.193 23.246-9.41 14.754-7.376 24.531-15.127 29.331-23.245 4.794-8.112 9.036-18.446 12.731-30.991 1.476-6.642 3.507-18.821 6.084-36.525 2.585-17.713 5.35-36.163 8.303-55.344 2.955-19.189 5.35-37.263 7.201-54.241 1.843-16.97 3.135-27.671 3.871-32.099 0.74-9.595-0.921-17.713-4.979-24.349-4.059-6.642-13.469-11.812-28.229-15.5-12.546-2.951-30.807-6.084-54.792-9.405-23.981-3.324-51.845-6.458-83.576-9.41-31.727-2.951-66.601-5.349-104.603-7.193-38.008-1.848-78.042-2.769-120.103-2.769-42.062 0-82.28 0.734-120.653 2.209-38.377 1.476-73.611 3.508-105.718 6.091-32.1 2.578-60.508 5.533-85.229 8.853-24.721 3.318-44.094 6.827-58.114 10.519-2.951 0.734-6.643 2.209-11.069 4.426-4.428 2.209-8.668 4.979-12.731 8.303-4.059 3.318-7.199 7.378-9.408 12.178-2.219 4.792-2.951 10.146-2.219 16.046 0.74 5.166 2.768 16.786 6.091 34.868 3.319 18.078 7.196 37.448 11.623 58.112 4.427 20.662 8.491 40.033 12.178 58.11 3.691 18.078 6.269 29.336 7.743 33.765 2.956 8.853 7.201 18.078 12.735 27.671 5.533 9.595 14.94 19.556 28.225 29.883 6.644 5.166 18.819 10.704 36.527 16.602 17.713 5.908 36.165 11.442 55.347 16.602 19.191 5.166 37.268 9.593 54.243 13.285 16.973 3.691 28.042 6.276 33.209 7.751 11.069 2.209 20.849 4.977 29.332 8.303 8.49 3.316 12.73 7.927 12.73 13.836v64.197c-8.118 6.642-15.864 14.020-23.246 22.14-6.644 6.642-13.282 14.577-19.923 23.796-6.643 9.225-12.546 19.006-17.712 29.331-10.329 19.929-16.973 38.191-19.924 54.795-2.949 16.601-4.799 26.379-5.533 29.33-0.741 2.951-3.508 5.35-8.303 7.194-4.799 1.849-8.303 5.723-10.517 11.627-5.904 12.544-8.668 25.825-8.303 39.852 0.366 14.018 1.292 33.942 2.768 59.77 2.215 25.825 6.458 50.545 12.73 74.158 6.275 23.614 20.109 45.382 41.509 65.311 11.069 9.593 25.83 17.521 44.278 23.797 18.451 6.269 37.267 10.885 56.454 13.836 19.19 2.951 37.448 4.426 54.794 4.426 17.341 0 30.443-1.109 39.297-3.317 9.595-2.956 17.343-6.092 23.246-9.41 5.902-3.325 10.511-6.458 13.836-9.41 3.318-2.951 6.086-5.719 8.303-8.303 2.209-2.584 4.426-4.613 6.643-6.086 3.687-2.955 8.49-3.877 14.388-2.768 5.901 1.099 16.235 0.183 30.991-2.77v0zM548.345 190.847l29.882-115.117 48.711 130.612-46.493 33.208-32.1-48.7zM468.644 241.765l-44.278-35.426 49.811-130.612 26.565 116.224-32.099 49.809zM862.712 674.557c10.335-1.476 18.636-6.642 24.906-15.494 6.276-8.859 9.778-19.561 10.518-32.107 0-3.686 0.368-9.776 1.103-18.264 0.74-8.487 1.109-17.155 1.109-26.014 0-8.852-0.368-17.155-1.109-24.905-0.734-7.743-1.843-12.36-3.318-13.836-2.951-2.95-5.718-4.24-8.303-3.87-2.585 0.365-3.876-0.924-3.876-3.877 0-1.476-0.186-6.092-0.554-13.836-0.366-7.751-2.398-19.004-6.089-33.763-1.476-7.377-3.687-14.018-6.639-19.921-2.951-5.904-6.276-11.068-9.966-15.495-3.687-5.168-8.114-9.96-13.281-14.394-0.742-5.901-1.109-11.436-1.109-16.602v-25.455c0.742-5.167 2.219-8.852 4.427-11.069 2.215-2.215 6.643-4.060 13.285-5.533 2.951-0.741 9.961-2.95 21.029-6.642 11.070-3.687 23.063-7.933 35.976-12.73 12.915-4.793 24.906-9.224 35.974-13.286 11.070-4.057 18.823-7.193 23.246-9.405 8.855-4.431 14.945-9.044 18.264-13.836 3.318-4.799 5.72-11.258 7.196-19.371 0.74-3.691 1.848-10.701 3.324-21.036 1.476-10.328 2.949-21.396 4.426-33.206 1.476-11.804 2.951-22.507 4.427-32.099 1.476-9.595 2.215-15.865 2.215-18.813 0.737-5.908-0.186-10.886-2.767-14.946-2.585-4.057-8.303-6.827-17.162-8.301-7.376-1.476-16.97-3.326-28.782-5.537-11.804-2.214-27.301-4.057-46.489-5.533-1.476 8.853-3.691 17.337-6.643 25.456-2.215 7.383-4.792 15.127-7.751 23.245-2.949 8.118-6.635 15.127-11.068 21.028-8.114 11.069-16.603 19.926-25.457 26.566-8.853 6.642-17.713 12.174-26.567 16.602-8.859 4.431-17.713 7.934-26.567 10.517-8.857 2.585-17.713 5.352-26.571 8.303-37.637 13.285-67.892 22.507-90.766 27.673-22.878 5.166-35.792 9.595-38.742 13.285-1.476 2.209-2.399 4.794-2.769 7.745-0.366 2.95-0.556 6.275-0.556 9.96 0 3.694 0.372 7.751 1.109 12.178 10.334 2.95 18.078 4.799 23.246 5.533 5.166 0.741 9.225 1.476 12.175 2.215 5.903 1.476 11.438 3.135 16.603 4.979 5.167 1.848 7.745 4.617 7.745 8.302v38.74l-6.635 3.327c-1.476 0.734-2.951 2.584-4.431 5.533 4.431 9.593 8.858 21.029 13.285 34.316 3.692 11.802 7.568 26.194 11.623 43.165 4.060 16.97 7.568 37.263 10.52 60.877 2.215 18.446 3.691 35.049 4.426 49.809 0.742 14.754 1.109 27.672 1.109 38.74v34.315c8.853 1.476 18.264 2.207 28.225 2.207 9.966 0 17.894-0.734 23.802-2.207 12.546-3.692 20.105-7.383 22.693-11.069 2.582-3.691 5.35-6.642 8.303-8.859 2.949-1.476 6.084-2.028 9.408-1.659 3.322 0.369 9.414-0.186 18.267-1.659v0zM806.258 320.351l7.751-29.888 19.923-6.642 15.496 39.851-23.24 19.926-19.929-23.245zM748.701 340.275l-18.821-18.813 1.106-4.431 34.316-9.961 4.427 12.178-21.030 21.028zM257.216 698.907c-11.803 1.476-23.613 1.848-35.416 1.109-10.335-0.734-21.589-2.584-33.766-5.534-12.171-2.95-23.424-8.117-33.758-15.494-8.853-5.903-15.864-12.912-21.029-21.029-5.168-8.118-9.045-16.421-11.628-24.905-2.578-8.487-4.24-16.421-4.978-23.796-0.741-7.383-1.109-13.286-1.109-17.713-0.734-9.595-1.476-18.263-2.219-26.014-0.734-7.751-0.365-14.577 1.109-20.479 1.476-5.901 2.582-9.961 3.324-12.176 0.737-2.209 2.21-4.060 4.428-5.533 2.207-1.476 4.059-2.395 5.533-2.768 1.476-0.366 2.95-5.345 4.426-14.937 0.741-9.595 3.136-19.004 7.195-28.23 4.062-9.22 8.303-16.786 12.729-22.691 2.219-3.692 4.984-7.193 8.303-10.519 3.326-3.317 6.458-6.826 9.41-10.51 2.95-3.691 6.643-7.384 11.070-11.068v-32.108c-0.734-4.427-2.395-8.113-4.979-11.067-2.584-2.95-7.566-5.162-14.943-6.636-3.691-0.741-9.779-2.215-18.265-4.431-8.487-2.209-17.711-4.613-27.673-7.194-9.966-2.584-19.928-5.349-29.89-8.303-9.96-2.951-17.896-5.533-23.798-7.743-21.404-10.335-34.316-28.045-38.742-53.133-2.951-11.804-6.276-26.566-9.962-44.276-3.69-17.711-6.276-30.254-7.75-37.633s-1.293-15.127 0.55-23.245c1.849-8.118 7.936-13.281 18.269-15.495 5.163-1.476 11.623-2.585 19.372-3.318 7.745-0.742 15.313-1.848 22.692-3.324 8.118-1.476 16.602-2.585 25.456-3.318 1.482 8.853 3.691 17.713 6.643 26.566 2.219 8.118 5.35 16.236 9.41 24.353 4.062 8.114 9.044 15.865 14.945 23.24 5.901 6.642 13.095 13.099 21.582 19.37 8.494 6.276 16.793 12.361 24.906 18.27 8.859 6.635 18.451 12.91 28.783 18.813l-11.070 27.671 24.356 18.819 25.456-28.782 13.286 3.318c1.476 0 3.691 0.742 6.642 2.219 1.476 0.74 2.95 1.105 4.427 1.105l21.030 24.351 18.819-15.496c3.688 0.741 7.013 1.476 9.962 2.215 2.95 0.734 6.269 1.476 9.961 2.209l11.070 2.215c8.118 1.476 14.945 2.95 20.479 4.426s8.666 5.166 9.408 11.069c0 2.95 0.187 5.349 0.554 7.193 0.366 1.848 0.55 3.506 0.55 4.983v3.318c-6.637 2.215-12.915 4.431-18.812 6.642l-15.497 4.426c-5.165 1.476-9.224 2.955-12.175 4.431-5.903 2.207-9.227 5.345-9.962 9.404-0.741 4.062-1.106 9.41-1.106 16.054v11.068c0 3.691 0.365 7.377 1.106 11.068 0 3.692 0.368 8.117 1.102 13.287-5.901 8.852-11.803 18.446-17.707 28.775-5.166 8.859-10.15 19.004-14.943 30.442-4.801 11.443-8.668 23.43-11.629 35.973-3.686 16.976-6.269 35.055-7.743 54.242-1.477 19.18-1.843 36.524-1.109 52.020 0.003 18.452 1.112 36.533 3.32 54.237v0zM257.216 698.907z"  horiz-adv-x="1024" />

    
    <glyph glyph-name="bianji" unicode="&#58922;" d="M314.832 178.387l-1.184-3.906 166.055 54.562 336.613 336.254c10.887 10.891 16.922 25.449 16.922 40.895s-6.035 30.004-16.922 40.891l-30.184 30.121c-10.414 10.418-25.211 16.453-40.832 16.453-15.508 0-30.539-6.035-40.953-16.453L368.684 341.422l-53.852-163.035z m392 457.867l4.262 4.199c14.203 14.203 25.211 22.965 36.336 22.965 6.035 0 11.836-2.664 17.164-7.934l29.941-30.121c5.328-5.266 8.051-10.949 8.051-16.984 0-11.184-8.879-22.25-23.082-36.453l-4.141-4.203-68.531 68.531zM394.605 324.086l290.57 290.449 68.41-68.473-290.452-290.507-68.528 68.531z m-37.636-106.703l25.801 77.941 53.262-52.492-79.063-25.449zM817.973 462.742c-8.879 0-16.098-7.164-16.098-16.098v-350.812c0-13.141-10.77-23.91-23.789-23.91H227.602c-13.254 0-23.906 10.77-23.906 23.91V651.461c0 13.141 10.652 23.852 23.906 23.852h364.426c8.875 0 16.094 7.277 16.094 16.156 0 8.875-7.219 16.094-16.094 16.094H227.602c-30.891 0-56.102-25.148-56.102-56.102v-555.629c0-30.832 25.211-56.043 56.102-56.043h550.484c30.773 0 55.98 25.211 55.98 56.043V446.645c0 8.933-7.218 16.097-16.093 16.097z"  horiz-adv-x="1024" />

    
    <glyph glyph-name="xialakuang" unicode="&#59157;" d="M527.36 262.826667l216.746667 211.626666c8.533333 8.533333 8.533333 22.186667 0 30.72s-23.893333 8.533333-32.426667 0L512 308.906667 310.613333 505.173333c-8.533333 8.533333-23.893333 8.533333-32.426666 0s-8.533333-22.186667 0-30.72L494.933333 262.826667c3.413333-3.413333 10.24-6.826667 15.36-6.826667 8.533333 0 13.653333 1.706667 17.066667 6.826667z"  horiz-adv-x="1024" />

    
    <glyph glyph-name="kecheng" unicode="&#59199;" d="M435.2 742.4h153.6c14.1312 0 25.6 11.5712 25.6 25.6 0 14.1312-11.4688 25.6-25.6 25.6H435.2c-14.0288 0-25.6-11.4688-25.6-25.6 0-14.0288 11.5712-25.6 25.6-25.6zM332.8 691.2c14.1312 0 25.6 11.5712 25.6 25.6V819.2c0 14.1312-11.4688 25.6-25.6 25.6-14.0288 0-25.6-11.4688-25.6-25.6v-102.4c0-14.0288 11.5712-25.6 25.6-25.6zM691.2 691.2c14.1312 0 25.6 11.5712 25.6 25.6V819.2c0 14.1312-11.4688 25.6-25.6 25.6-14.0288 0-25.6-11.4688-25.6-25.6v-102.4c0-14.0288 11.5712-25.6 25.6-25.6zM870.4 793.6h-76.8c-14.1312 0-25.6-11.4688-25.6-25.6s11.4688-25.6 25.6-25.6h76.8c28.2624 0 51.2-22.9376 51.2-51.2v-153.6H102.4V691.2c0 28.2624 22.9376 51.2 51.2 51.2h76.8c14.1312 0 25.6 11.4688 25.6 25.6s-11.4688 25.6-25.6 25.6h-76.8c-56.32 0-102.4-46.08-102.4-102.4v-665.6c0-56.32 46.08-102.4 102.4-102.4h716.8c56.32 0 102.4 46.08 102.4 102.4V691.2c0 56.32-46.08 102.4-102.4 102.4z m0-819.2H153.6c-28.2624 0-51.2 23.04-51.2 51.2V486.4h819.2v-460.8c0-28.16-22.9376-51.2-51.2-51.2zM742.4 332.8H281.6c-14.0288 0-25.6-11.4688-25.6-25.6 0-14.0288 11.5712-25.6 25.6-25.6h460.8c14.1312 0 25.6 11.5712 25.6 25.6 0 14.1312-11.4688 25.6-25.6 25.6zM486.4 179.2H281.6c-14.0288 0-25.6-11.4688-25.6-25.6 0-14.0288 11.5712-25.6 25.6-25.6h204.8c14.1312 0 25.6 11.5712 25.6 25.6 0 14.1312-11.4688 25.6-25.6 25.6z"  horiz-adv-x="1024" />

    
    <glyph glyph-name="bofang" unicode="&#58910;" d="M512.583 886.857C234.847 886.857 9.726 661.717 9.726 384c0-277.736 225.121-502.857 502.857-502.857S1015.44 106.263 1015.44 384c0 277.718-225.12 502.857-502.857 502.857z m0-933.877c-237.677 0-431.02 193.342-431.02 431.02 0 237.661 193.343 431.02 431.02 431.02S943.603 621.66 943.603 384c0-237.678-193.34-431.02-431.02-431.02zM420.677 152.85c-2.77 0-5.542 0.666-8.102 1.964a17.908 17.908 0 0 0-9.856 15.995v410.52c0 6.681 3.718 12.82 9.646 15.923 5.893 3.086 13.083 2.631 18.554-1.176l287.348-199.9a17.974 17.974 0 0 0 7.718-14.52 18.009 18.009 0 0 0-7.333-14.717L431.305 156.357c-3.156-2.314-6.875-3.507-10.628-3.507z"  horiz-adv-x="1024" />

    
    <glyph glyph-name="pagebar-prev" unicode="&#59167;" d="M319.64 383.984l336.016 336.008 45.248-45.248-336.008-336.024zM365.216 429.536l339.976-339.968-45.256-45.256-339.976 339.976z"  horiz-adv-x="1024" />

    
    <glyph glyph-name="gou" unicode="&#58894;" d="M512 781.76a391.36 391.36 0 1 1 0-782.72 391.36 391.36 0 0 1 0 782.72z m224.256-287.808l-278.4-274.112-171.52 169.28a35.584 35.584 0 0 0-0.832 0.768l-0.128 0.128a31.744 31.744 0 0 0 44.672 45.248l0.256 0.256L457.856 309.76l233.088 229.44a32 32 0 1 0 45.12-44.928l0.192-0.256z"  horiz-adv-x="1024" />

    
    <glyph glyph-name="qun" unicode="&#59121;" d="M490.605737 255.106398c-16.457834 3.290953-16.457834 47.725978-16.457833 47.725978s49.371454 47.725978 59.246359 113.556288c29.623691 0 46.081525 69.12024 18.10331 93.80648 1.645476 26.330692 37.852096 200.778816-144.824433 200.778816-181.031053 0-144.825456-174.448124-144.825457-200.778816-29.622668-24.686239-11.519358-93.806479 18.10331-93.80648 11.520381-64.183811 59.246359-113.556289 59.246359-113.556288s0-46.080501-16.45681-47.725978c-54.308907-8.228405-255.088746-95.452979-255.088746-192.550411h678.042687c-0.001023 97.097432-200.779839 184.322006-255.088746 192.550411z m0 0zM716.071815 266.625756c-16.457834 3.290953-16.457834 46.080501-16.457833 46.080501s46.080501 46.080501 55.954383 106.97336c27.978215 0 44.435025 65.829288 16.457833 87.223551 1.645476 24.685215 34.561144 189.259458-136.596028 189.259458-16.457834 0-32.914644-1.645476-46.080501-4.937453 74.057693-47.725978 52.66343-157.991314 51.017954-177.739077 29.623691-24.686239 11.519358-93.806479-18.10331-93.806479-8.228405-51.017954-39.496549-90.515526-52.66343-106.97336l1.645476-1.645476s0-19.748786-4.937452-32.913621c1.645476-9.874905 6.582929-18.10331 13.16688-19.749809 51.017954-8.228405 230.402507-85.578074 253.442247-174.448125h123.43017c0 92.161003-189.259458 174.448124-240.276389 182.67653z m0 0z"  horiz-adv-x="1024" />

    
    <glyph glyph-name="wen" unicode="&#58926;" d="M512 896a512 512 0 0 1-512-512c0-282.816 229.184-512 512-512s512 229.184 512 512a512 512 0 0 1-512 512z m-3.392-867.52a55.616 55.616 0 1 0 0 111.232 55.616 55.616 0 0 0 0-111.232z m200.896 449.216c-10.112-21.184-31.488-47.488-64.384-78.976-32.896-31.616-54.592-54.016-65.408-67.328a138.88 138.88 0 0 1-24.384-47.808c-5.504-18.496-8-43.392-7.296-74.624H462.208c0 36.416 2.88 65.472 8.832 87.296 5.888 21.824 14.72 40.832 26.432 57.088 11.712 16.192 32.832 40.192 63.424 71.68 30.592 31.488 50.176 54.528 59.008 68.8 8.832 14.272 13.184 35.584 13.184 63.872s-10.176 53.376-30.272 75.2C582.72 654.72 553.408 665.6 515.008 665.6c-86.528 0-129.792-51.392-129.792-154.112H299.392c1.28 46.784 6.784 82.432 16.576 106.816a174.08 174.08 0 0 0 46.784 65.28c21.504 19.2 45.376 33.28 71.68 42.432a254.144 254.144 0 0 0 83.456 13.696c59.2 0 108.416-17.408 147.776-52.224 39.424-34.816 59.008-81.216 59.008-139.008a162.56 162.56 0 0 0-15.168-70.784z"  horiz-adv-x="1024" />

    
    <glyph glyph-name="qun2" unicode="&#58948;" d="M861.122048-15.223467v107.6224h-0.836267a333.568 333.568 0 0 1-185.565866 280.866134A227.106133 227.106133 0 0 1 768.023381 557.2608c0 3.191467-0.341333 6.2976-0.4608 9.454933a158.122667 158.122667 0 0 0 23.739734 2.4576 166.0416 166.0416 0 0 0 163.84-168.2432 169.096533 169.096533 0 0 0-68.9664-136.7552 246.647467 246.647467 0 0 0 135.441066-190.856533H1024.023381v-88.541867h-162.901333z m-46.5408 83.780267h-1.1776a61.166933 61.166933 0 0 0 1.1776-11.946667 58.897067 58.897067 0 0 0-58.197333-59.5968h-58.180267v95.3856a23.278933 23.278933 0 1 1-46.5408 0v-95.3856H349.122048v95.3856a23.278933 23.278933 0 1 1-46.5408 0v-95.3856h-58.197333a58.897067 58.897067 0 0 0-58.180267 59.5968 61.303467 61.303467 0 0 0 1.1776 11.946667h-1.1776A335.035733 335.035733 0 0 0 372.076715 373.026133a227.6864 227.6864 0 0 0-92.8256 184.234667A223.829333 223.829333 0 0 0 500.383915 783.786667a223.829333 223.829333 0 0 0 221.098666-226.474667 227.6864 227.6864 0 0 0-92.8256-184.234667 335.035733 335.035733 0 0 0 185.9072-304.520533zM325.552981 373.009067a332.151467 332.151467 0 0 1-182.613333-256.768h-3.2768v-131.413334H0.023381v44.219734a45.499733 45.499733 0 0 0 0.8704 8.925866H0.023381A248.951467 248.951467 0 0 0 137.939115 264.192a169.096533 169.096533 0 0 0-68.9664 136.7552 166.0416 166.0416 0 0 0 163.84 168.2432h0.580266c-0.2048-3.959467-0.580267-7.850667-0.580266-11.861333a227.601067 227.601067 0 0 1 92.740266-184.32z"  horiz-adv-x="1024" />

    
    <glyph glyph-name="shoucang" unicode="&#59181;" d="M707.584 802.816c-77.312 0-148.992-38.912-196.608-102.912-47.104 64-119.296 102.912-196.608 102.912-139.264 0-252.416-123.904-252.416-275.968 0-90.624 40.448-154.624 73.216-205.824C229.888 172.032 468.48-12.8 478.72-20.48c9.728-7.68 20.992-11.264 32.256-11.264s22.528 3.584 32.256 11.264c10.24 7.68 248.32 193.024 343.552 341.504 32.768 51.2 73.216 115.2 73.216 205.824 0 152.064-113.152 275.968-252.416 275.968z"  horiz-adv-x="1024" />

    
    <glyph glyph-name="wodejifen" unicode="&#58942;" d="M204.8 738.8c-31.7-18.2-47.6-37.9-47.6-59.1v-59.1c0-21.3 15.9-41 47.6-59.1 31.7-18.2 74.9-32.6 129.3-43.2 54.5-10.6 113.8-15.9 177.9-15.9s123.3 5.3 177.8 15.9c54.5 10.6 97.6 25 129.3 43.2 31.7 18.2 47.6 37.9 47.6 59.1v59.1c0 21.3-15.9 41-47.6 59.1-31.7 18.1-74.9 32.5-129.3 43.2-54.5 10.6-113.7 15.9-177.8 15.9s-123.3-5.3-177.9-15.9c-54.5-10.7-97.6-25.1-129.3-43.2z m-47.6-394.5v-78.5c0-21.3 15.9-41 47.6-59.1 31.7-18.2 74.9-32.5 129.3-43.2 54.5-10.6 113.8-15.9 177.9-15.9s123.3 5.3 177.8 15.9c54.5 10.6 97.6 25 129.3 43.2 31.7 18.2 47.6 37.9 47.6 59.1v78.5c-36.6-25.9-86.7-45.4-150.2-58.7-63.3-13.3-131.5-19.9-204.5-19.9s-141.2 6.6-204.7 19.9c-63.4 13.2-113.5 32.8-150.1 58.7z m0-177.5v-78.5c0-21.3 15.9-41 47.6-59.1 31.7-18.2 74.9-32.5 129.3-43.2 54.5-10.6 113.8-15.9 177.8-15.9 64.1 0 123.3 5.3 177.8 15.9 54.5 10.7 97.6 25 129.3 43.2 31.7 18.2 47.6 37.9 47.6 59.1v78.5c-36.6-25.9-86.7-45.4-150.2-58.7C653.2 95 585 88.4 512 88.4s-141.2 6.6-204.7 19.9c-63.4 13.2-113.5 32.7-150.1 58.5z m0 354.9v-78.5c0-21.3 15.9-41 47.6-59.1 31.7-18.2 74.9-32.5 129.3-43.2 54.5-10.6 113.8-15.9 177.8-15.9 64.1 0 123.3 5.3 177.8 15.9 54.5 10.6 97.6 25 129.3 43.2 31.7 18.2 47.6 37.9 47.6 59.1v78.5c-36.6-25.9-86.7-45.4-150.2-58.7-63.2-13.2-131.4-19.9-204.4-19.9s-141.2 6.6-204.7 19.9c-63.4 13.2-113.5 32.8-150.1 58.7z"  horiz-adv-x="1024" />

    
    <glyph glyph-name="xing-copy" unicode="&#58889;" d="M550.4 115.20000000000005c-6.4 6.4-19.2 6.4-25.6 6.4-12.8 0-19.2 0-25.6-6.4l-179.2-96c-32-19.2-51.2 0-44.8 32l32 198.4c0 19.2-6.4 38.4-19.2 51.2l-147.2 140.8c-25.6 25.6-19.2 51.2 19.2 51.2l198.4 32c19.2 0 38.4 19.2 44.8 32l89.6 179.2c6.4 12.8 19.2 25.6 25.6 25.6s19.2-6.4 25.6-25.6l89.6-179.2c6.4-12.8 25.6-32 44.8-32l198.4-32c38.4-6.4 44.8-32 19.2-51.2l-147.2-140.8c-12.8-12.8-19.2-38.4-19.2-51.2l32-198.4c6.4-32-12.8-51.2-44.8-32l-166.4 96zM524.8 121.60000000000002c-12.8 0-19.2 0-25.6-6.4l-179.2-96c-32-19.2-51.2 0-44.8 32l32 198.4c0 19.2-6.4 38.4-19.2 51.2l-147.2 140.8c-25.6 25.6-19.2 51.2 19.2 51.2l198.4 32c19.2 0 38.4 19.2 44.8 32l89.6 179.2c6.4 12.8 19.2 25.6 25.6 25.6"  horiz-adv-x="1024" />

    
    <glyph glyph-name="up-arrow" unicode="&#58882;" d="M354.562295 832.775027l0-470.682989L185.649234 362.092038l326.34872-426.866041 326.352813 426.866041-168.917154 0L669.433612 832.775027 354.562295 832.775027z"  horiz-adv-x="1024" />

    
    <glyph glyph-name="tengxunketang" unicode="&#59475;" d="M1011.2768 546.6624c-121.7792 82.3552-243.5584 164.6848-365.2608 247.0656-35.8144 24.2432-71.4752 48.7424-107.264 73.0112C530.3296 872.448 520.96 874.3424 510.7712 872.448c-7.9872-1.4848-14.3616-6.0672-20.8896-10.2912-90.6496-58.752-181.2736-117.5552-271.8976-176.3328-67.6608-43.8528-135.3216-87.7056-202.9568-131.6096-14.976-9.728-15.488-25.9072-1.28-36.736 1.3824-1.0752 2.8416-2.048 4.3008-3.0464 160.3328-109.1072 320.3584-218.624 481.6896-326.2208 12.6208-8.3968 21.6064-16.7936 17.5872-33.152v-14.1056c0-3.7376-0.9728-7.04-4.6336-8.8064-3.6096-1.7664-6.6304-0.384-9.7536 1.7152-99.3536 67.2512-198.7584 134.4768-298.112 201.6768a75.9296 75.9296 0 0 1-13.2864 7.424c-9.9584 4.1472-18.7392-1.664-18.7392-12.4416-0.0256-38.016-0.0256-76.0064 0.0256-113.9968 0-3.328 0.128-6.656 0.5376-9.9584 1.9968-16.4352 12.4928-26.5984 25.4464-35.3792 99.8144-67.6352 199.4752-135.424 299.264-203.136a34.4832 34.4832 0 0 1 38.7328 0.0256l307.84 206.1056c15.3856 10.2656 22.9888 24.192 22.9376 42.9312-0.2816 61.1328-0.0512 122.2144-0.2048 183.3472-0.0256 4.1984 1.2544 6.6048 4.7104 9.0368 46.4896 32.512 92.928 65.2032 139.2896 97.92 16.8704 11.904 16.768 27.8016-0.1024 39.2448z m-259.584-30.9248c-68.6336-47.0016-137.2928-93.9264-205.9264-140.928-5.0944-3.5072-10.1632-5.0176-15.872-1.8176-5.4016 3.0464-6.912 7.9616-6.8864 13.9008 0.128 25.2672 0.0512 50.56 0.0512 75.8016v7.04l-64.5632-44.16c-23.7568-16.2304-47.5392-32.384-71.2448-48.6912-5.2992-3.6608-10.5216-6.2976-16.8448-2.944-6.272 3.3024-7.2704 8.96-7.2704 15.4624 0.1024 92.0832 0.0512 184.1408 0.0768 276.224 0 2.9184-0.1024 5.8368 0.7936 8.7296 2.5088 8.3712 10.7008 12.2368 18.5856 8.5248 2.4576-1.152 4.7872-2.6112 7.0656-4.1216 42.5984-28.9024 85.1456-57.856 127.7184-86.8096l5.6832-3.712v6.3488c0 24.2944 0.0768 48.5888-0.0512 72.8576-0.0256 6.3488 1.3568 11.7248 7.296 14.9248 5.7088 3.072 10.8288 1.2544 15.872-2.2016 68.5568-46.72 137.216-93.3632 205.7984-140.1088 10.1888-6.9632 10.0608-17.28-0.2816-24.32z"  horiz-adv-x="1024" />

    
    <glyph glyph-name="arrow-right" unicode="&#58880;" d="M422.28038263 541.56087432l27.67430424 28.64586725 193.72062124-192.74954989-193.72062124-192.7495499-27.67430424 28.64586726 163.13310299 164.10417432z"  horiz-adv-x="1024" />

    
    <glyph glyph-name="erweima" unicode="&#58886;" d="M62.996776 411.938306l423.162696 0L486.159472 835.099978 62.996776 835.099978 62.996776 411.938306zM168.788218 729.30956l211.580836 0 0-211.580836L168.788218 517.728724 168.788218 729.30956zM539.055193 835.099978l0-423.162696 423.162696 0L962.217888 835.099978 539.055193 835.099978zM856.426447 517.728724L644.845611 517.728724 644.845611 729.30956l211.580836 0L856.426447 517.728724zM221.682915 570.623421l105.790418 0L327.473333 676.414863 221.682915 676.414863 221.682915 570.623421zM62.996776-64.12011099999995l423.162696 0L486.159472 359.04258500000003 62.996776 359.04258500000003 62.996776-64.12011099999995zM168.788218 253.252167l211.580836 0 0-211.580836L168.788218 41.67133100000001 168.788218 253.252167zM803.531749 676.414863L697.740308 676.414863l0-105.790418 105.790418 0L803.530726 676.414863zM539.055193-64.12011099999995l105.790418 0L644.845611 41.67030799999998 539.055193 41.67030799999998 539.055193-64.12011099999995zM644.845611 253.252167l0-211.580836 105.790418 0L750.636029 253.252167 644.845611 253.252167zM856.426447 41.67030799999998L750.636029 41.67030799999998 750.636029-64.12011099999995l211.580836 0L962.216865 147.46174900000005 856.426447 147.46174900000005 856.426447 41.67030799999998zM856.426447 253.252167l105.790418 0L962.216865 359.04258500000003 856.426447 359.04258500000003 856.426447 253.252167zM539.055193 359.04258500000003l0-105.790418 105.790418 0L644.845611 359.04258500000003 539.055193 359.04258500000003zM221.682915 94.56602799999996l105.790418 0L327.473333 200.356446 221.682915 200.356446 221.682915 94.56602799999996z"  horiz-adv-x="1024" />

    
    <glyph glyph-name="qzone" unicode="&#58990;" d="M528.58434 894.793109c-5.452202-2.234073-20.798154-18.617273-20.798154-22.287536 0-1.236719-24.016283-52.248048-53.484767-113.166427s-54.721486-114.150482-56.210867-118.352667a52.354433 52.354433 0 0 0-4.454848-10.159712c-1.236719-1.489382-8.178302-14.853925-15.598616-29.707849-7.978831-16.343306-16.343306-29.960512-21.050817-33.683967-11.383133-9.654386-3.710157-8.67033-231.771756-34.162696-103.006714-11.635796-114.363251-13.364543-120.58674-19.069408-4.454848-3.989416-6.196892-18.324716-2.965465-26.742383 0.984056-2.234073 45.306465-44.322409 98.551867-93.591693 168.37994-155.494127 157.475537-144.603022 157.475537-156.252117 0-5.691566-3.470792-26.250356-7.433612-46.051155-4.215483-19.814098-13.617206-69.336046-21.276884-110.187663s-16.582671-87.647464-19.814098-104.004068c-17.087997-87.155436-17.287468-89.628874-8.417667-99.043895 8.417667-8.909695 18.072053-7.978831 43.577718 4.946875 23.776918 12.141122 25.997693 13.364543 72.793539 40.851618 17.087997 9.907049 39.375533 22.779564 49.521947 28.484428s28.976456 16.835334 41.596309 24.44182 23.524255 13.869869 24.268945 13.869869c0.492028 0 8.178302 4.454848 16.835335 9.907049s16.582671 9.893751 17.580025 9.893751 9.907049 4.946876 19.814098 11.143768c23.524255 14.627858 43.883573 22.034873 55.466177 19.814098 4.946876-0.984056 16.835334-5.704865 26.250356-10.891105 24.760974-13.058688 180.760427-102.940224 229.28502-131.91668 41.356943-24.760974 53.484767-29.468484 67.607299-25.74503 9.415021 2.234073 12.127824 15.851279 8.909695 42.833027-1.489382 12.141122-3.710157 25.758328-4.960174 30.465839-1.98141 7.978831-10.146414 51.742722-29.960512 161.691019-9.162358 52.248048-9.162358 53.19221 11.383133 60.905081 28.484428 10.638442 41.848971 20.053463 36.649433 25.266299-1.742045 1.742045-17.580025-0.252663-50.5326-6.196892-61.171041-11.143768-73.790893-12.872515-138.419428-18.816744-73.53823-6.941583-141.398192-8.417667-232.024419-5.212837-70.812129 2.473438-155.002099 8.67033-159.70961 11.635796-3.710157 2.473438-1.98141 10.159712 3.710157 15.106588 2.965466 2.739399 40.612252 29.721147 83.445279 60.173687 134.203945 95.094373 221.372679 157.980863 228.553627 164.669784 12.380487 11.635796 11.383133 12.127824-40.120224 18.816744-81.463869 10.399077-102.767349 12.141122-235.481913 18.324716-44.322409 1.98141-84.442633 4.454848-89.096951 5.199539-48.537891 8.178302 198.83248 30.45254 303.328576 27.234411 68.591355-1.98141 149.310533-7.672976 196.811177-13.869869 44.322409-5.944229 47.04851-6.436257 47.048509-11.383133 0-3.989416-4.707511-7.433611-108.950944-79.243094-42.846325-29.721147-88.405453-61.171041-101.277967-70.080737-12.63315-8.909695-25.74503-18.072053-28.723793-20.053463-13.803378-9.401723-60.346562-41.835673-73.258971-51.237396-8.165004-5.944229-14.627858-12.380487-14.627858-14.361897 0-4.707511 12.127824-7.686274 49.521947-12.141121 99.296558-11.635796 284.019804-18.072053 292.184809-9.907049 1.728747 1.742045 1.489382 7.180948-1.250017 18.617273-1.98141 8.67033-3.710157 16.848632-3.710157 18.072053 0 3.470792 42.101634 45.559128 100.280614 100.041249C1068.857616 483.710413 1072.328407 487.221099 1072.328407 498.604232c0 9.907049-8.178302 18.816744-20.306126 21.795508-5.944229 1.489382-41.356943 5.452202-78.737768 9.162358-37.394124 3.470792-78.737769 7.433611-91.610284 8.67033-12.872515 1.489382-40.120224 4.215483-60.665715 6.436258-78.458509 7.978831-102.514686 10.891105-108.206253 13.617205-10.891105 4.946876-21.050817 25.2663-96.078429 194.151566-53.484767 120.839403-58.192278 130.493789-65.612591 137.182709-6.156998 5.691566-15.811384 7.978831-22.500305 5.199539z"  horiz-adv-x="1072" />

    
    <glyph glyph-name="up-solid" unicode="&#58883;" d="M148.409 196.61300000000006l317.444 413.412c22.06 28.734 69.89 28.734 91.951 0l317.444-413.412c20.453-26.633-5.128-59.94100001-46.038-59.94199999l-634.826-1e-8c-40.847 0-66.43 33.308-45.976 59.941z"  horiz-adv-x="1024" />

    
    <glyph glyph-name="arrow-left-copy" unicode="&#58881;" d="M694.475 63.547000000000025l-56.285-58.26-393.996 392.021 393.996 392.021 56.285-58.26-331.786-333.761z"  horiz-adv-x="1024" />

    
    <glyph glyph-name="naozhong" unicode="&#58971;" d="M76.8 599.04c47.104 114.176 153.6 198.144 276.992 219.648 20.992 3.072 34.816 23.04 31.744 44.032v0.512c-4.096 20.48-24.576 34.304-45.056 30.72C190.464 867.84 61.952 765.44 4.608 627.712c-7.68-19.456 1.536-41.472 20.992-49.152h0.512c5.12-2.56 9.728-3.584 14.848-3.584 14.848 0 29.184 8.704 35.84 24.064zM956.928 360.96c0 240.128-200.704 435.2-447.488 435.2s-447.488-195.072-447.488-435.2c0-139.264 67.584-263.68 172.544-343.04-12.8 3.072-26.624 0-36.864-10.24L126.976-61.44c-7.168-7.168-11.264-16.384-11.264-26.624s4.096-19.968 11.264-27.136c7.68-7.168 17.408-11.264 27.136-11.264s19.968 3.584 27.136 11.264L252.416-46.08c7.168 7.168 11.264 16.384 11.264 26.112 0 7.68-2.048 14.848-6.144 20.992 71.68-47.616 158.208-75.776 251.904-75.776 93.184 0 179.712 27.648 251.392 75.264-9.216-14.336-7.68-33.792 4.608-46.592l72.192-70.144c14.848-14.848 39.424-14.848 54.784 0 7.168 7.168 11.264 16.896 11.264 27.136s-4.096 19.968-11.264 27.136l-71.168 69.12c-10.24 9.728-24.064 13.312-36.352 10.24 104.448 80.384 172.032 204.8 172.032 343.552z m-77.312 0c0-198.144-165.888-359.424-370.176-359.424-203.776 0-370.176 161.28-370.176 359.424s165.888 359.424 370.176 359.424c204.288 0.512 370.176-160.768 370.176-359.424zM682.496 243.2L550.912 373.76V637.952c-0.512 20.992-17.408 37.888-38.4 37.888h-1.024c-20.992 0-37.888-16.384-38.4-37.376v-276.992c0-8.192 2.56-16.384 7.68-22.528 1.536-3.584 4.096-7.168 7.168-10.24l1.024-1.024 138.24-137.216c7.68-7.68 17.408-11.264 27.648-11.264 9.728 0 19.456 3.584 27.136 10.752 14.848 13.824 15.872 37.888 1.536 52.736 0 0-0.512 0.512-1.024 0.512zM1019.392 626.688l-0.512 0.512c-56.832 137.728-185.856 240.128-335.872 266.24-20.48 3.584-40.96-9.728-45.056-30.72-3.584-20.48 10.24-40.448 30.72-44.032h0.512c123.904-21.504 230.4-105.984 276.992-219.648 6.144-14.848 20.992-23.552 36.352-23.552 4.608 0 9.728 1.024 14.336 2.56 20.48 7.168 30.208 29.184 22.528 48.64z"  horiz-adv-x="1024" />

    
    <glyph glyph-name="jiantou" unicode="&#58970;" d="M502.455 538.406L264.367 300.318l29.76-29.76L502.455 478.89l208.332-208.332 29.759 29.76-208.329 208.33z"  horiz-adv-x="1024" />

    
    <glyph glyph-name="xiazai1" unicode="&#58998;" d="M365.714286 457.142857H73.142857l438.857143-438.857143 438.857143 438.857143H658.285714V896H365.714286v-438.857143z m-365.714286-585.142857v73.142857h1024v-73.142857H0z"  horiz-adv-x="1024" />

    
    <glyph glyph-name="luxiang" unicode="&#60090;" d="M908.396075 673.205774h-25.168215a56.824193 56.824193 0 0 1-39.838334-16.338106l-76.860529-75.822896v35.411511c0 47.021943-38.135552 85.128843-85.117586 85.128842H142.306076c-46.931892 0-85.123726-38.169321-85.123726-85.128842v-453.992865c0-46.988174 38.1069-85.123726 85.123726-85.123726h539.105335c46.983057 0 85.117586 38.135552 85.117586 85.123726V197.109496l76.860529-75.816756c10.640338-10.470469 24.941042-16.343223 39.838334-16.343224h25.168215c31.320333 0 56.749492 25.400506 56.749492 56.749492v454.757275c0 31.360242-25.429159 56.749492-56.749492 56.749491zM142.306076 134.089184c-15.662725 0-28.374234 12.740162-28.374234 28.374234V616.456283c0 15.691377 12.68388 28.374234 28.374234 28.374234h539.105335c15.628956 0 28.369118-12.706393 28.369118-28.374234v-453.992865c0-15.634072-12.740162-28.374234-28.369118-28.374234H142.306076z m766.089999 27.608801h-28.374234L766.528997 275.195945v0.766456l-14.054087 28.380375V474.584088l127.546931 141.873218h28.374234v-454.759321z"  horiz-adv-x="1024" />

    
    <glyph glyph-name="arrow-right1" unicode="&#58896;" d="M329.525 704.453l56.285 58.26 393.996-392.021-393.996-392.021-56.285 58.26 331.786 333.761z"  horiz-adv-x="1024" />

    
    <glyph glyph-name="xiazai" unicode="&#58885;" d="M482.016651 325.232636V642.897186h59.186408v-316.732537l136.384501 139.173313 41.181949-42.012813-205.331753-209.522197-2.528716 4.190444-2.731014-4.190444-203.742274 209.247651 41.181949 42.287359zM230.474417 272.982135h59.186408v-147.96602H230.474417z m503.084469 0h59.186408v-147.96602h-59.186408zM289.660825 184.202523h443.898061v-59.186408h-443.898061z m0 0"  horiz-adv-x="1024" />

    
    <glyph glyph-name="uparrow-blue" unicode="&#58920;" d="M10.59 120.30600000000004c14.115-14.111 36.979-14.111 51.127 0l450.283 450.282 450.282-450.282c14.151-14.111 37.016-14.111 51.129 0 14.112 14.111 14.113 37.014 0 51.125l-471.211 471.21c-1.232 1.787-2.636 3.493-4.226 5.086-7.15 7.148-16.579 10.66-25.973 10.549-9.395 0.111-18.826-3.396-25.977-10.549-1.593-1.593-2.993-3.301-4.228-5.089l-471.207-471.206c-14.112-14.111-14.113-37.014 0.001-51.125z"  horiz-adv-x="1024" />

    
    <glyph glyph-name="qq" unicode="&#58941;" d="M868.57111 420.570939c12.617132 113.371327-36.571396 127.999886-36.571396 127.999885C822.856865 899.107654 527.359986 895.999086 521.142849 895.999086S219.428833 899.107654 210.285984 548.570824c0 0-49.371384-14.628558-36.571396-127.999885 0 0-106.788476-94.719915-127.999886-219.428376 0 0 5.119995-192.365543 109.714188-18.285698a672.547971 672.547971 0 0 1 73.142792-127.999885s-81.371356-34.377112-74.239934-109.714188c0 0-14.994272-73.142792 165.668423-73.142792 0 0 144.822728 0 182.85698 54.857094h36.571396c38.034252-54.857094 164.571282-54.857094 164.571282-54.857094 180.662696 0 182.85698 73.142792 182.856979 73.142792 6.948565 74.605648-91.42849 109.714188-91.42849 109.714188a711.862222 711.862222 0 0 1 74.057077 127.999885c107.337047-174.079845 108.799903 18.285698 108.799903 18.285698a478.536716 478.536716 0 0 1-109.714188 219.428376z"  horiz-adv-x="1024" />

    
    <glyph glyph-name="down-solid" unicode="&#58884;" d="M875.591 571.387l-317.444-413.412c-22.06-28.734-69.89-28.734-91.951 0l-317.444 413.412c-20.453 26.633 5.128 59.941 46.038 59.942h634.826c40.847 0 66.43-33.308 45.976-59.941z"  horiz-adv-x="1024" />

    
    <glyph glyph-name="iconfontxingxing" unicode="&#58887;" d="M942.689255 484.770163c-4.743556 14.595558-17.39304 25.298967-32.596745 27.4883l-250.070555 36.367265-111.899275 226.596033c-6.81126 13.74415-20.79867 22.501485-36.124005 22.501485-15.325336 0-29.312745-8.757335-36.124005-22.501485l-111.899275-226.596033-250.070555-36.367265c-15.203706-2.189334-27.853189-12.771113-32.596745-27.4883-4.743556-14.595558-0.729778-30.650671 10.21689-41.35408l180.984915-176.362988L229.939522 17.95557699999995c-2.554223-15.082076 3.648889-30.407412 16.055113-39.408006 12.406224-9.000594 28.826226-10.21689 42.448747-3.040741l223.676921 117.615869 223.676921-117.615869c5.838223-3.040741 12.284594-4.621927 18.730966-4.621927 8.392446 0 16.663262 2.554223 23.717781 7.662668 12.406224 9.000594 18.609336 24.325929 16.055113 39.408006l-42.692006 249.097518 180.984915 176.362988C943.419033 454.119492 947.432811 470.174605 942.689255 484.770163L942.689255 484.770163z"  horiz-adv-x="1024" />

    
    <glyph glyph-name="mulu" unicode="&#58892;" d="M56.420352 656.584704h911.562752c31.014912 0 56.016896 24.635392 56.016896 55.5776 0 31.014912-25.001984 55.650304-56.016896 55.650304H56.420352C25.001984 767.812608 0 743.177216 0 712.162304c0-30.941184 25.001984-55.5776 56.420352-55.5776zM967.983104 439.61344H56.420352C25.001984 439.61344 0 414.978048 0 383.963136c0-30.941184 25.001984-55.5776 56.420352-55.5776h911.562752c31.014912 0 56.016896 24.635392 56.016896 55.5776 0 31.014912-25.001984 55.650304-56.016896 55.650304zM967.983104 111.415296H56.420352C25.001984 111.415296 0 86.77888 0 55.763968c0-30.941184 25.001984-55.5776 56.420352-55.5776h911.562752c31.014912 0 56.016896 24.635392 56.016896 55.5776 0 31.014912-25.001984 55.651328-56.016896 55.651328z"  horiz-adv-x="1024" />

    
    <glyph glyph-name="shenglvehao" unicode="&#59057;" d="M147.012 465.11c-44.791 0-81.109-36.305-81.109-81.11 0-44.779 36.317-81.108 81.109-81.108 44.792 0 81.109 36.33 81.109 81.108 0 44.805-36.316 81.11-81.11 81.11z m364.987 0c-44.79 0-81.108-36.305-81.108-81.11 0-44.779 36.316-81.108 81.108-81.108 44.793 0 81.11 36.33 81.11 81.108 0 44.805-36.317 81.11-81.11 81.11z m364.988 0c-44.79 0-81.108-36.305-81.108-81.11 0-44.779 36.316-81.108 81.108-81.108s81.109 36.33 81.109 81.108c-0.002 44.805-36.318 81.11-81.109 81.11z"  horiz-adv-x="1024" />

    
    <glyph glyph-name="luxiang1" unicode="&#58893;" d="M575.575245 691.52768H126.530765A129.10592 129.10592 0 0 1 0.005325 561.23392v-395.14112A129.10592 129.10592 0 0 1 126.530765 35.84h444.94848a129.10592 129.10592 0 0 1 126.52544 130.29376V561.23392a123.20768 123.20768 0 0 1-122.4704 130.29376z m191.85664-260.62848v-130.29376l257.14688-197.59104V628.49024z m0 0"  horiz-adv-x="1024" />

    
    <glyph glyph-name="Group" unicode="&#58916;" d="M943.542857 47.542857l-80.457143 80.457143-7.314285 7.314286c51.2 73.142857 80.457143 160.914286 80.457142 248.685714 0 241.371429-197.485714 438.857143-438.857142 438.857143s-438.857143-197.485714-438.857143-438.857143 197.485714-438.857143 438.857143-438.857143c95.085714 0 182.857143 29.257143 256 80.457143l7.314285-7.314286 80.457143-80.457143c29.257143-29.257143 73.142857-29.257143 102.4 0 29.257143 36.571429 29.257143 80.457143 0 109.714286zM204.8 391.314286c0 160.914286 131.657143 292.571429 292.571429 292.571428s292.571429-131.657143 292.571428-292.571428-131.657143-292.571429-292.571428-292.571429-292.571429 131.657143-292.571429 292.571429z"  horiz-adv-x="1024" />

    
    <glyph glyph-name="shouji" unicode="&#58907;" d="M512 112c-25.6 0-44.8-19.2-44.8-44.8s19.2-44.8 44.8-44.8 44.8 19.2 44.8 44.8c0 25.6-19.2 44.8-44.8 44.8zM806.4 841.6c-12.8 12.8-32 22.4-54.4 22.4h-480C230.4 864 195.2 828.8 195.2 787.2v-809.6c0-41.6 35.2-76.8 76.8-76.8h483.2c41.6 0 76.8 35.2 76.8 76.8V787.2c-3.2 22.4-12.8 41.6-25.6 54.4zM249.6 128h528v-147.2c0-6.4-3.2-12.8-6.4-16-3.2-3.2-9.6-6.4-16-6.4H272c-12.8 0-22.4 9.6-22.4 22.4V128z m22.4 684.8h483.2c12.8 0 22.4-9.6 22.4-22.4v-604.8H249.6V787.2c0 12.8 9.6 25.6 22.4 25.6z"  horiz-adv-x="1024" />

    
    <glyph glyph-name="ren" unicode="&#58945;" d="M381.82374936 613.9531377000001h272.42700654c21.05260556 0 58.27696485-29.74597138 58.27696486-66.46758089l-0.09426539-296.31804786c0-20.47653937-17.19819792-37.10914636-38.38696542-37.10914637-21.17829374 0-38.3555441 16.63260551-38.35554409 37.10914637V481.13318884h-8.54672864l0.11521294-499.56472443c0-22.83317439-29.27464437-41.40345822-52.95620738-41.40345969-23.62919413 0-51.11279444 17.71142147-51.11279444 40.54459584V222.10234289000005l-11.78317502 0.57606618v-241.30895071c0-22.87507094-27.78734553-41.12066203-51.4374872-41.12066202-23.66061545 0-52.93525983 18.53886253-52.93525835 41.40345823l1.2254502 499.48093427h-8.77715747v-229.96567989a36.80540115 36.80540115 0 0 0-37.27672814-37.10914637c-21.17829374 0-38.36601788 16.63260551-38.36601787 37.10914637L323.57820584 547.4855568099999c0 37.97848251 37.24530685 66.46758091 58.24554352 66.46758089z m140.97914362 18.96829298c-57.63805458 0-104.35179801 44.58753429-104.351798 99.6071067s46.71374342 99.61758045 104.351798 99.61758045c57.62758081 0 104.34132425-44.59800805 104.34132424-99.61758045s-46.71374342-99.6071067-104.34132424-99.6071067z m0 0"  horiz-adv-x="1024" />

    
    <glyph glyph-name="wenjianjia" unicode="&#58953;" d="M0 896h512l85.333333-85.333333h597.333334v-938.666667H0zM0 640h1194.666667v-768H0z"  horiz-adv-x="1194" />

    
    <glyph glyph-name="guanbi" unicode="&#58890;" d="M719.8 231.5L570.3 381l149.5 149.5c15.3 15.3 15.3 40.2 0 55.5s-40.2 15.3-55.5 0L514.8 436.5 365.3 586c-15.3 15.3-40.2 15.3-55.5 0s-15.3-40.2 0-55.5L459.3 381 309.8 231.5c-15.3-15.3-15.3-40.2 0-55.5s40.2-15.3 55.5 0l149.5 149.5L664.3 176c15.3-15.3 40.2-15.3 55.5 0s15.3 40.2 0 55.5z"  horiz-adv-x="1024" />

    


  </font>
</defs>
</svg>
